<svg width="800" height="600" xmlns="http://www.w3.org/2000/svg">
  <!-- INNER JOIN -->
  <g transform="translate(150, 100)">
    <circle cx="50" cy="50" r="50" fill="lightgray"/>
    <circle cx="100" cy="50" r="50" fill="lightgray"/>
    <circle cx="50" cy="50" r="50" fill="none" stroke="blue" stroke-width="2"/>
    <circle cx="100" cy="50" r="50" fill="none" stroke="blue" stroke-width="2"/>
    <text x="75" y="120" font-size="20" text-anchor="middle">INNER JOIN</text>
    <text x="25" y="55" font-size="20" text-anchor="middle" fill="blue">A</text>
    <text x="125" y="55" font-size="20" text-anchor="middle" fill="blue">B</text>
  </g>

  <!-- LEFT OUTER JOIN -->
  <g transform="translate(450, 100)">
    <circle cx="50" cy="50" r="50" fill="lightgray"/>
    <circle cx="100" cy="50" r="50" fill="white"/>
    <circle cx="50" cy="50" r="50" fill="none" stroke="blue" stroke-width="2"/>
    <circle cx="100" cy="50" r="50" fill="none" stroke="blue" stroke-width="2"/>
    <text x="75" y="120" font-size="20" text-anchor="middle">LEFT OUTER JOIN</text>
    <text x="25" y="55" font-size="20" text-anchor="middle" fill="blue">A</text>
    <text x="125" y="55" font-size="20" text-anchor="middle" fill="blue">B</text>
  </g>

  <!-- RIGHT OUTER JOIN -->
  <g transform="translate(150, 300)">
    <circle cx="50" cy="50" r="50" fill="white"/>
    <circle cx="100" cy="50" r="50" fill="lightgray"/>
    <circle cx="50" cy="50" r="50" fill="none" stroke="blue" stroke-width="2"/>
    <circle cx="100" cy="50" r="50" fill="none" stroke="blue" stroke-width="2"/>
    <text x="75" y="120" font-size="20" text-anchor="middle">RIGHT OUTER JOIN</text>
    <text x="25" y="55" font-size="20" text-anchor="middle" fill="blue">A</text>
    <text x="125" y="55" font-size="20" text-anchor="middle" fill="blue">B</text>
  </g>

  <!-- FULL OUTER JOIN -->
  <g transform="translate(450, 300)">
    <circle cx="50" cy="50" r="50" fill="lightgray"/>
    <circle cx="100" cy="50" r="50" fill="lightgray"/>
    <circle cx="50" cy="50" r="50" fill="none" stroke="blue" stroke-width="2"/>
    <circle cx="100" cy="50" r="50" fill="none" stroke="blue" stroke-width="2"/>
    <text x="75" y="120" font-size="20" text-anchor="middle">FULL OUTER JOIN</text>
    <text x="25" y="55" font-size="20" text-anchor="middle" fill="blue">A</text>
    <text x="125" y="55" font-size="20" text-anchor="middle" fill="blue">B</text>
  </g>
</svg>
